<svg xmlns="http://www.w3.org/2000/svg" style="display: none;">
  <symbol id="icon-check" viewBox="0 0 24 24" fill="none" stroke="currentColor" stroke-width="2">
    <path d="M20 6L9 17l-5-5"/>
  </symbol>
  <symbol id="icon-phone" viewBox="0 0 24 24" fill="none" stroke="currentColor" stroke-width="2">
    <path d="M22 16.92v3a2 2 0 0 1-2.18 2 19.79 19.79 0 0 1-8.63-3.07 19.5 19.5 0 0 1-6-6 19.79 19.79 0 0 1-3.07-8.67A2 2 0 0 1 4.11 2h3a2 2 0 0 1 2 1.72 12.84 12.84 0 0 0 .7 2.81 2 2 0 0 1-.45 2.11L8.09 9.91a16 16 0 0 0 6 6l1.27-1.27a2 2 0 0 1 2.11-.45 12.84 12.84 0 0 0 2.81.7A2 2 0 0 1 22 16.92z"/>
  </symbol>
  <symbol id="icon-email" viewBox="0 0 24 24" fill="none" stroke="currentColor" stroke-width="2">
    <path d="M4 4h16c1.1 0 2 .9 2 2v12c0 1.1-.9 2-2 2H4c-1.1 0-2-.9-2-2V6c0-1.1.9-2 2-2z"/>
    <polyline points="22,6 12,13 2,6"/>
  </symbol>
  <symbol id="icon-clock" viewBox="0 0 24 24" fill="none" stroke="currentColor" stroke-width="2">
    <circle cx="12" cy="12" r="10"/>
    <polyline points="12 6 12 12 16 14"/>
  </symbol>
  <symbol id="icon-home" viewBox="0 0 24 24" fill="none" stroke="currentColor" stroke-width="2">
    <path d="M3 9l9-7 9 7v11a2 2 0 0 1-2 2H5a2 2 0 0 1-2-2z"/>
    <polyline points="9 22 9 12 15 12 15 22"/>
  </symbol>
  <symbol id="icon-building" viewBox="0 0 24 24" fill="none" stroke="currentColor" stroke-width="2">
    <path d="M3 21h18"/>
    <path d="M5 21V7l8-4v18"/>
    <path d="M19 21V11l-6-4"/>
    <line x1="9" y1="9" x2="9" y2="9"/>
    <line x1="9" y1="12" x2="9" y2="12"/>
    <line x1="9" y1="15" x2="9" y2="15"/>
    <line x1="9" y1="18" x2="9" y2="18"/>
  </symbol>
  <symbol id="icon-refresh" viewBox="0 0 24 24" fill="none" stroke="currentColor" stroke-width="2">
    <polyline points="23 4 23 10 17 10"/>
    <polyline points="1 20 1 14 7 14"/>
    <path d="M3.51 9a9 9 0 0 1 14.85-3.36L23 10M1 14l4.64 4.36A9 9 0 0 0 20.49 15"/>
  </symbol>
  <symbol id="icon-water" viewBox="0 0 24 24" fill="none" stroke="currentColor" stroke-width="2">
    <path d="M12 2.69l5.66 5.66a8 8 0 1 1-11.31 0z"/>
    <path d="M12 2.69v18.62"/>
  </symbol>
  <symbol id="icon-scissors" viewBox="0 0 24 24" fill="none" stroke="currentColor" stroke-width="2">
    <circle cx="6" cy="6" r="3"/>
    <circle cx="6" cy="18" r="3"/>
    <line x1="20" y1="4" x2="8.12" y2="15.88"/>
    <line x1="14.47" y1="14.48" x2="20" y2="20"/>
    <line x1="8.12" y1="8.12" x2="12" y2="12"/>
  </symbol>
  <symbol id="icon-paw" viewBox="0 0 24 24" fill="none" stroke="currentColor" stroke-width="2">
    <circle cx="9" cy="9" r="2"/>
    <circle cx="15" cy="9" r="2"/>
    <circle cx="9" cy="15" r="2"/>
    <circle cx="15" cy="15" r="2"/>
    <path d="M12 2v4M12 18v4M2 12h4M18 12h4"/>
  </symbol>
  <symbol id="icon-leaf" viewBox="0 0 24 24" fill="none" stroke="currentColor" stroke-width="2">
    <path d="M12 2C6.48 2 2 6.48 2 12s4.48 10 10 10 10-4.48 10-10S17.52 2 12 2zm0 18c-4.41 0-8-3.59-8-8s3.59-8 8-8 8 3.59 8 8-3.59 8-8 8z"/>
    <path d="M12 6v6l4 2"/>
  </symbol>
  <symbol id="icon-shield" viewBox="0 0 24 24" fill="none" stroke="currentColor" stroke-width="2">
    <path d="M12 22s8-4 8-10V5l-8-3-8 3v7c0 6 8 10 8 10z"/>
  </symbol>
  <symbol id="icon-trophy" viewBox="0 0 24 24" fill="none" stroke="currentColor" stroke-width="2">
    <path d="M6 9H4a2 2 0 0 0-2 2v11a2 2 0 0 0 2 2h16a2 2 0 0 0 2-2V11a2 2 0 0 0-2-2h-2"/>
    <path d="M6 1h12v8a6 6 0 0 1-6 6 6 6 0 0 1-6-6V1z"/>
    <line x1="6" y1="9" x2="18" y2="9"/>
  </symbol>
  <symbol id="icon-check-circle" viewBox="0 0 24 24" fill="none" stroke="currentColor" stroke-width="2">
    <path d="M22 11.08V12a10 10 0 1 1-5.93-9.14"/>
    <polyline points="22 4 12 14.01 9 11.01"/>
  </symbol>
</svg>

